<?xml version="1.0" encoding="utf-8"?>
<!-- Generator: Adobe Illustrator 23.0.3, SVG Export Plug-In . SVG Version: 6.00 Build 0)  -->
<svg version="1.1" id="Capa_1" xmlns="http://www.w3.org/2000/svg" xmlns:xlink="http://www.w3.org/1999/xlink" x="0px" y="0px"
	 viewBox="0 0 512 512" style="enable-background:new 0 0 512 512;" xml:space="preserve">
<g>
	<path d="M465.8,157.7L465.8,157.7c-5.6-7-15.5-8.4-22.6-3.3c-3.6,2.6-5.8,6.5-6.4,10.9c-0.6,4.4,0.6,8.8,3.4,12.3
		c20.6,25.7,32.4,56.4,34,88.8c1.2,23.3-2.8,46.2-12,68.1c-24,57.1-79.3,94.5-140.9,95.4l-11.5,0.2v-49.9L220,446l89.7,66v-49.7
		l11.2-0.1c82-0.9,155.2-56.5,178.2-135.2c7-24,9.2-49.1,6.3-74.6C501.5,217.9,487.8,185.2,465.8,157.7z"/>
	<path d="M72.9,334.4C52.4,308.6,40.6,278,39,245.7c-1.2-23.5,2.8-46.4,12-68.2c24-56.9,79.3-94.4,140.9-95.4l11.5-0.2v50L293,66
		L203.2,0v49.7l-11.2,0.1c-81.9,1-155.1,56.6-178.2,135.3c-7.1,24.2-9.2,49.3-6.3,74.6c4,34.5,17.7,67.2,39.7,94.6
		c5.6,7.1,15.5,8.5,22.6,3.3c3.6-2.6,5.9-6.5,6.5-10.9C76.9,342.3,75.7,337.9,72.9,334.4L72.9,334.4z"/>
</g>
<path d="M123,333c0,13.3,10.7,24,24,24h212c13.3,0,24-10.7,24-24v-42c0-13.3-10.7-24-24-24H147c-13.3,0-24,10.7-24,24V333z M139,291
	c0-4.4,3.6-8,8-8h212c4.4,0,8,3.6,8,8v42c0,4.4-3.6,8-8,8H147c-4.4,0-8-3.6-8-8V291z"/>
<path d="M337,327.5c8.6-0.1,15.5-7,15.4-15.6c-0.1-8.6-7-15.5-15.6-15.4c-8.5,0.1-15.4,7-15.4,15.5
	C321.4,320.5,328.4,327.5,337,327.5z M337,311.5v1c-0.2,0-0.4-0.3-0.4-0.5L337,311.5z"/>
<path d="M161.4,320h92c4.4,0,8-3.6,8-8s-3.6-8-8-8h-92c-4.4,0-8,3.6-8,8S157,320,161.4,320z"/>
<path d="M281.5,320h21.3c4.4,0,8-3.6,8-8s-3.6-8-8-8h-21.3c-4.4,0-8,3.6-8,8S277.1,320,281.5,320z"/>
<path d="M123,222.8c0,13.3,10.7,24,24,24h212c13.3,0,24-10.7,24-24v-42c0-13.3-10.7-24-24-24H147c-13.3,0-24,10.7-24,24V222.8z
	 M139,180.8c0-4.4,3.6-8,8-8h212c4.4,0,8,3.6,8,8v42c0,4.4-3.6,8-8,8H147c-4.4,0-8-3.6-8-8V180.8z"/>
<path d="M337,217.3c8.6-0.1,15.5-7,15.4-15.6c-0.1-8.6-7-15.5-15.6-15.4c-8.5,0.1-15.4,7-15.4,15.5
	C321.4,210.4,328.4,217.3,337,217.3z M337,201.3v1c-0.2,0-0.4-0.3-0.4-0.5L337,201.3z"/>
<path d="M161.4,209.8h92c4.4,0,8-3.6,8-8s-3.6-8-8-8h-92c-4.4,0-8,3.6-8,8S157,209.8,161.4,209.8z"/>
<path d="M281.5,209.8h21.3c4.4,0,8-3.6,8-8s-3.6-8-8-8h-21.3c-4.4,0-8,3.6-8,8S277.1,209.8,281.5,209.8z"/>
</svg>
