<?xml version="1.0" encoding="utf-8"?>
<!-- Generator: Adobe Illustrator 23.0.3, SVG Export Plug-In . SVG Version: 6.00 Build 0)  -->
<svg version="1.1" id="Warstwa_1" xmlns="http://www.w3.org/2000/svg" xmlns:xlink="http://www.w3.org/1999/xlink" x="0px" y="0px"
	 viewBox="0 0 72 72" style="enable-background:new 0 0 72 72;" xml:space="preserve">
<style type="text/css">
	.st0{fill-rule:evenodd;clip-rule:evenodd;fill:#FFFFFF;}
</style>
<path id="Kształt_113" class="st0" d="M70.3,10.5l0.2-0.6l-0.6-0.2L58.7,6l-0.6-0.2l-0.2,0.6l-4.4,13.4l-0.2,0.6l0.6,0.2l11.3,3.7
	l0.6,0.2l0.2-0.6L70.3,10.5z M59.5,10.7l0.4-1.3l7,2.3L66.4,13L59.5,10.7z M58.7,13.4l0.4-1.3l7,2.3l-0.4,1.3L58.7,13.4z M58.2,14.7
	l7,2.3l-0.4,1.3l-7-2.3L58.2,14.7z M59.7,19.5l0.4-1.3l4.2,1.4l-0.4,1.3L59.7,19.5z M11.7,13.6l-0.1-0.4l-0.5,0.1L3,15.7l-0.5,0.1
	l0.1,0.4l2.9,9.6l0.1,0.4l0.5-0.1l8.1-2.5l0.5-0.1l-0.1-0.4L11.7,13.6z M5.4,18.1l-0.3-1l5-1.5l0.3,1L5.4,18.1z M6,20.1l-0.3-1
	l5-1.5l0.3,1L6,20.1z M6.3,21l5-1.5l0.3,1l-5,1.5L6.3,21z M9.2,23.3l-0.3-1l3-0.9l0.3,1L9.2,23.3z M40,6V5h-8v9h8V6z M33.9,7.3V6.5
	h4.3v0.8H33.9z M33.9,8.9V8.1h4.3v0.8L33.9,8.9L33.9,8.9z M33.9,9.7h4.3v0.8h-4.3V9.7L33.9,9.7L33.9,9.7z M35.6,12.1v-0.8h2.6v0.8
	H35.6z M71,52.2C71,60.4,64.3,67,56,67H16C7.8,67,1.1,60.4,1,52.2c0-5.4,3.1-9.8,7.4-12.4c0.1-5.5,4.5-9.9,10-9.9
	c0.3,0,0.7,0.1,1,0.2c8-9.2,21.9-10.2,31.1-2.2c3,2.6,5.2,5.9,6.5,9.7C64.8,38,70.9,44.4,71,52.2z M56.4,41.5l-2.1,0.1l-0.5-1.9
	c-2.1-7.8-9.3-13.3-17.4-13.3c-5.6,0.1-10.8,2.6-14.3,7l-0.9,1.2l-1.6-0.4c-0.4-0.1-0.8-0.1-1.2-0.2c-2.8,0-5.8,2.2-5.8,5
	c0,0.1,0,0.3,0.1,0.7l0.2,1.9l-1.7,0.7C7.4,44,4.9,47.8,4.8,52c0,5.6,5.6,11,11.2,11h39c5.5,0,12.1-5.2,12.1-10.6
	s-4.7-10.9-10.3-10.9C57,41.4,56.9,41.5,56.4,41.5z M37.7,56.7c-0.1,0.1-0.3,0.2-0.5,0.2h-2c-0.4,0-0.7-0.3-0.7-0.7v-2.5
	c-1.4-0.2-2.7-0.7-3.8-1.6c-1-0.7-1.5-1.8-1.6-3c0-0.2,0-0.4,0.2-0.5c0.1-0.1,0.3-0.2,0.5-0.2h1.7c0.2,0,0.4,0,0.6,0.1
	c0.2,0.1,0.3,0.3,0.4,0.4c0.3,0.5,0.7,1,1.2,1.3c0.8,0.4,1.6,0.5,2.5,0.5c0.9,0,1.8-0.1,2.7-0.5c0.6-0.2,1.1-0.8,1.1-1.5
	c0-0.4-0.1-0.7-0.4-0.9c-0.3-0.3-0.7-0.5-1.2-0.6c-0.5-0.2-1.3-0.4-2.3-0.6c-0.4-0.1-0.9-0.2-1.6-0.4c-1.4-0.3-2.6-0.8-3.7-1.7
	c-0.8-0.9-1.2-2-1.1-3.2c0-1.2,0.5-2.4,1.4-3.2c1-0.9,2.2-1.5,3.5-1.7l0-1.9c0-0.4,0.3-0.7,0.7-0.7l2,0c0.4,0,0.7,0.3,0.7,0.7l0,1.9
	c0.9,0.1,1.8,0.5,2.6,1c0.7,0.4,1.2,0.9,1.7,1.6c0.3,0.4,0.6,0.9,0.6,1.5c0,0.2,0,0.4-0.2,0.5c-0.1,0.1-0.3,0.2-0.5,0.2h-1.7
	c-0.2,0-0.4,0-0.6-0.1c-0.2-0.1-0.3-0.3-0.4-0.4c-0.3-0.4-0.7-0.7-1.2-0.8c-0.7-0.3-1.4-0.4-2.1-0.4c-0.8,0-1.5,0.2-2.2,0.5
	c-0.5,0.3-0.9,0.8-0.9,1.4c0,0.4,0.2,0.8,0.5,1.1c0.4,0.3,0.9,0.6,1.4,0.7c0.6,0.2,1.6,0.4,3.1,0.7c1.5,0.2,2.9,0.8,4.1,1.7
	c0.8,0.8,1.3,2,1.2,3.2c0,1.2-0.5,2.4-1.4,3.3c-1.1,1-2.5,1.6-4,1.7v2.5C37.9,56.4,37.9,56.6,37.7,56.7L37.7,56.7z"/>
</svg>
